<svg xmlns="http://www.w3.org/2000/svg" width="504" height="90" viewBox="0 0 504 90" xmlns:c2pa="http://c2pa.org/manifest"><metadata><c2pa:manifest>AAAWgmp1bWIAAAAeanVtZGMycGEAEQAQgAAAqgA4m3EDYzJwYQAAABZcanVtYgAAAEdqdW1kYzJtYQARABCAAACqADibcQN1cm46YzJwYTplMWIzODMwNi0xMDUwLTRjYWQtOWMxYi1jYjNhNTVjN2EwZmEAAAADl2p1bWIAAAApanVtZGMyYXMAEQAQgAAAqgA4m3EDYzJwYS5hc3NlcnRpb25zAAAAALxqdW1iAAAARGp1bWRjYm9yABEAEIAAAKoAOJtxE2MycGEuaW5ncmVkaWVudC52MwAAAAAYYzJzaDEaNfaKqB2Imsw8GtGiH7EAAABwY2JvcqNpZGM6Zm9ybWF0bWltYWdlL3N2Zyt4bWxqaW5zdGFuY2VJRHgseG1wOmlpZDpmNThhMjA5Yy0yZWNlLTRjMGYtYjQ3Zi01NDVjNTI5YTc1MTlscmVsYXRpb25zaGlwaHBhcmVudE9mAAAB4mp1bWIAAABBanVtZGNib3IAEQAQgAAAqgA4m3ETYzJwYS5hY3Rpb25zLnYyAAAAABhjMnNoM7FuJBCETtQ1PxyQ83NZEgAAAZljYm9yomdhY3Rpb25zgqJmYWN0aW9ua2MycGEub3BlbmVkanBhcmFtZXRlcnOha2luZ3JlZGllbnRzgaJjdXJseC1zZWxmI2p1bWJmPWMycGEuYXNzZXJ0aW9ucy9jMnBhLmluZ3JlZGllbnQudjNkaGFzaFggkWA7f+vEN2gAXBqSNwn1EgcV/QQQq7ug2dSkTbpGDj2kZmFjdGlvbngdY29tLmFudGhyb3BpYy5jbGF1ZGUucHJvdmlkZWRqcGFyYW1ldGVyc6F4H2NvbS5hbnRocm9waWMub3JpZ2luLWNvbmZpZGVuY2VndW5rbm93bmtkZXNjcmlwdGlvbnhmQ2xhdWRlIHByb3ZpZGVkIHRoaXMgZmlsZSBhdCB0aGUgcmVxdWVzdCBvZiBhIHVzZXIgYW5kIG1heSBoYXZlIGNyZWF0ZWQgb3IgbW9kaWZpZWQgdGhlIGZpbGUgY29udGVudHMubXNvZnR3YXJlQWdlbnShZG5hbWVmQ2xhdWRlcmFsbEFjdGlvbnNJbmNsdWRlZPUAAADIanVtYgAAAEBqdW1kY2JvcgARABCAAACqADibcRNjMnBhLmhhc2guZGF0YQAAAAAYYzJzaMjKR0vpKJ4z9T8S5XqlfMMAAACAY2JvcqVjYWxnZnNoYTI1NmNwYWRNAAAAAAAAAAAAAAAAAGRoYXNoWCDYzKPQ27LAqoECikOLp3H9mnXejt4N8dca2mMHdu6igmRuYW1lbmp1bWJmIG1hbmlmZXN0amV4Y2x1c2lvbnOBomVzdGFydBiUZmxlbmd0aBkeBAAAAj5qdW1iAAAAJ2p1bWRjMmNsABEAEIAAAKoAOJtxA2MycGEuY2xhaW0udjIAAAACD2Nib3KlY2FsZ2ZzaGEyNTZpc2lnbmF0dXJleE1zZWxmI2p1bWJmPS9jMnBhL3VybjpjMnBhOmUxYjM4MzA2LTEwNTAtNGNhZC05YzFiLWNiM2E1NWM3YTBmYS9jMnBhLnNpZ25hdHVyZWppbnN0YW5jZUlEeCx4bXA6aWlkOjkyNGQ5OGM1LTc3ZjMtNGZiNy05M2Y0LWE1NzFiM2MzY2NmMnJjcmVhdGVkX2Fzc2VydGlvbnODomN1cmx4LXNlbGYjanVtYmY9YzJwYS5hc3NlcnRpb25zL2MycGEuaW5ncmVkaWVudC52M2RoYXNoWCCRYDt/68Q3aABcGpI3CfUSBxX9BBCru6DZ1KRNukYOPaJjdXJseCpzZWxmI2p1bWJmPWMycGEuYXNzZXJ0aW9ucy9jMnBhLmFjdGlvbnMudjJkaGFzaFggHMgNJQGQCEM3tK5yUla3NwKLkQDsrgxQY1pA1i9SHlGiY3VybHgpc2VsZiNqdW1iZj1jMnBhLmFzc2VydGlvbnMvYzJwYS5oYXNoLmRhdGFkaGFzaFggpYJHtYKqSZ9wUexQWJUNvZsmzlXD0WiHFnmqYgkQOJp0Y2xhaW1fZ2VuZXJhdG9yX2luZm+jZG5hbWVvQW50aHJvcGljIEZpbGVzZ3ZlcnNpb25lMS4wLjBrc3BlY1ZlcnNpb25lMi40LjAAABA4anVtYgAAAChqdW1kYzJjcwARABCAAACqADibcQNjMnBhLnNpZ25hdHVyZQAAABAIY2JvctKEWQISogEmGCFZAgowggIGMIIBjaADAgECAhRA5aAK7sI50L64g/oGQgU9Z1UTADAKBggqhkjOPQQDAzBJMRcwFQYDVQQKEw5BbnRocm9waWMsIFBCQzEuMCwGA1UEAxMlQW50aHJvcGljIENvbnRlbnQgQ3JlZGVudGlhbHMgUm9vdCBDQTAeFw0yNjA4MDcxODQzNTZaFw0yODA4MDYxOTQzNTZaMEQxFzAVBgNVBAoTDkFudGhyb3BpYywgUEJDMSkwJwYDVQQDEyBBbnRocm9waWMgQ2xhdWRlIENvbnRlbnQgU2lnbmluZzBZMBMGByqGSM49AgEGCCqGSM49AwEHA0IABJh6CmvLUBgFFNU0vUKlOVtE6djd17L5SuwX0LemFisBM3dkd/3cyjxFA3Qo5S46fX0/ihY0VZ7mfb9KF703t5OjWDBWMA4GA1UdDwEB/wQEAwIHgDAVBgNVHSUEDjAMBgorBgEEAYPoXgIBMAwGA1UdEwEB/wQCMAAwHwYDVR0jBBgwFoAUzlHiBIFOZFsj+OPEz5o+nMHXXMIwCgYIKoZIzj0EAwMDZwAwZAIwMXMdFJ4BetLLVY7ORuE9noqbbAZOZn/aArXyTwFAZfKrPzxF2vPoJNf1+UCdg1XGAjBwX1zd9WGqYkqmL5SFqw1QySjr1zJfpJM9+1rdDwSPLMOPOjKuiXjoU/pUUeG9RwmhY3BhZFkNngAAAAAAAAAAAAAAAAAAAAAAAAAAAAAAAAAAAAAAAAAAAAAAAAAAAAAAAAAAAAAAAAAAAAAAAAAAAAAAAAAAAAAAAAAAAAAAAAAAAAAAAAAAAAAAAAAAAAAAAAAAAAAAAAAAAAAAAAAAAAAAAAAAAAAAAAAAAAAAAAAAAAAAAAAAAAAAAAAAAAAAAAAAAAAAAAAAAAAAAAAAAAAAAAAAAAAAAAAAAAAAAAAAAAAAAAAAAAAAAAAAAAAAAAAAAAAAAAAAAAAAAAAAAAAAAAAAAAAAAAAAAAAAAAAAAAAAAAAAAAAAAAAAAAAAAAAAAAAAAAAAAAAAAAAAAAAAAAAAAAAAAAAAAAAAAAAAAAAAAAAAAAAAAAAAAAAAAAAAAAAAAAAAAAAAAAAAAAAAAAAAAAAAAAAAAAAAAAAAAAAAAAAAAAAAAAAAAAAAAAAAAAAAAAAAAAAAAAAAAAAAAAAAAAAAAAAAAAAAAAAAAAAAAAAAAAAAAAAAAAAAAAAAAAAAAAAAAAAAAAAAAAAAAAAAAAAAAAAAAAAAAAAAAAAAAAAAAAAAAAAAAAAAAAAAAAAAAAAAAAAAAAAAAAAAAAAAAAAAAAAAAAAAAAAAAAAAAAAAAAAAAAAAAAAAAAAAAAAAAAAAAAAAAAAAAAAAAAAAAAAAAAAAAAAAAAAAAAAAAAAAAAAAAAAAAAAAAAAAAAAAAAAAAAAAAAAAAAAAAAAAAAAAAAAAAAAAAAAAAAAAAAAAAAAAAAAAAAAAAAAAAAAAAAAAAAAAAAAAAAAAAAAAAAAAAAAAAAAAAAAAAAAAAAAAAAAAAAAAAAAAAAAAAAAAAAAAAAAAAAAAAAAAAAAAAAAAAAAAAAAAAAAAAAAAAAAAAAAAAAAAAAAAAAAAAAAAAAAAAAAAAAAAAAAAAAAAAAAAAAAAAAAAAAAAAAAAAAAAAAAAAAAAAAAAAAAAAAAAAAAAAAAAAAAAAAAAAAAAAAAAAAAAAAAAAAAAAAAAAAAAAAAAAAAAAAAAAAAAAAAAAAAAAAAAAAAAAAAAAAAAAAAAAAAAAAAAAAAAAAAAAAAAAAAAAAAAAAAAAAAAAAAAAAAAAAAAAAAAAAAAAAAAAAAAAAAAAAAAAAAAAAAAAAAAAAAAAAAAAAAAAAAAAAAAAAAAAAAAAAAAAAAAAAAAAAAAAAAAAAAAAAAAAAAAAAAAAAAAAAAAAAAAAAAAAAAAAAAAAAAAAAAAAAAAAAAAAAAAAAAAAAAAAAAAAAAAAAAAAAAAAAAAAAAAAAAAAAAAAAAAAAAAAAAAAAAAAAAAAAAAAAAAAAAAAAAAAAAAAAAAAAAAAAAAAAAAAAAAAAAAAAAAAAAAAAAAAAAAAAAAAAAAAAAAAAAAAAAAAAAAAAAAAAAAAAAAAAAAAAAAAAAAAAAAAAAAAAAAAAAAAAAAAAAAAAAAAAAAAAAAAAAAAAAAAAAAAAAAAAAAAAAAAAAAAAAAAAAAAAAAAAAAAAAAAAAAAAAAAAAAAAAAAAAAAAAAAAAAAAAAAAAAAAAAAAAAAAAAAAAAAAAAAAAAAAAAAAAAAAAAAAAAAAAAAAAAAAAAAAAAAAAAAAAAAAAAAAAAAAAAAAAAAAAAAAAAAAAAAAAAAAAAAAAAAAAAAAAAAAAAAAAAAAAAAAAAAAAAAAAAAAAAAAAAAAAAAAAAAAAAAAAAAAAAAAAAAAAAAAAAAAAAAAAAAAAAAAAAAAAAAAAAAAAAAAAAAAAAAAAAAAAAAAAAAAAAAAAAAAAAAAAAAAAAAAAAAAAAAAAAAAAAAAAAAAAAAAAAAAAAAAAAAAAAAAAAAAAAAAAAAAAAAAAAAAAAAAAAAAAAAAAAAAAAAAAAAAAAAAAAAAAAAAAAAAAAAAAAAAAAAAAAAAAAAAAAAAAAAAAAAAAAAAAAAAAAAAAAAAAAAAAAAAAAAAAAAAAAAAAAAAAAAAAAAAAAAAAAAAAAAAAAAAAAAAAAAAAAAAAAAAAAAAAAAAAAAAAAAAAAAAAAAAAAAAAAAAAAAAAAAAAAAAAAAAAAAAAAAAAAAAAAAAAAAAAAAAAAAAAAAAAAAAAAAAAAAAAAAAAAAAAAAAAAAAAAAAAAAAAAAAAAAAAAAAAAAAAAAAAAAAAAAAAAAAAAAAAAAAAAAAAAAAAAAAAAAAAAAAAAAAAAAAAAAAAAAAAAAAAAAAAAAAAAAAAAAAAAAAAAAAAAAAAAAAAAAAAAAAAAAAAAAAAAAAAAAAAAAAAAAAAAAAAAAAAAAAAAAAAAAAAAAAAAAAAAAAAAAAAAAAAAAAAAAAAAAAAAAAAAAAAAAAAAAAAAAAAAAAAAAAAAAAAAAAAAAAAAAAAAAAAAAAAAAAAAAAAAAAAAAAAAAAAAAAAAAAAAAAAAAAAAAAAAAAAAAAAAAAAAAAAAAAAAAAAAAAAAAAAAAAAAAAAAAAAAAAAAAAAAAAAAAAAAAAAAAAAAAAAAAAAAAAAAAAAAAAAAAAAAAAAAAAAAAAAAAAAAAAAAAAAAAAAAAAAAAAAAAAAAAAAAAAAAAAAAAAAAAAAAAAAAAAAAAAAAAAAAAAAAAAAAAAAAAAAAAAAAAAAAAAAAAAAAAAAAAAAAAAAAAAAAAAAAAAAAAAAAAAAAAAAAAAAAAAAAAAAAAAAAAAAAAAAAAAAAAAAAAAAAAAAAAAAAAAAAAAAAAAAAAAAAAAAAAAAAAAAAAAAAAAAAAAAAAAAAAAAAAAAAAAAAAAAAAAAAAAAAAAAAAAAAAAAAAAAAAAAAAAAAAAAAAAAAAAAAAAAAAAAAAAAAAAAAAAAAAAAAAAAAAAAAAAAAAAAAAAAAAAAAAAAAAAAAAAAAAAAAAAAAAAAAAAAAAAAAAAAAAAAAAAAAAAAAAAAAAAAAAAAAAAAAAAAAAAAAAAAAAAAAAAAAAAAAAAAAAAAAAAAAAAAAAAAAAAAAAAAAAAAAAAAAAAAAAAAAAAAAAAAAAAAAAAAAAAAAAAAAAAAAAAAAAAAAAAAAAAAAAAAAAAAAAAAAAAAAAAAAAAAAAAAAAAAAAAAAAAAAAAAAAAAAAAAAAAAAAAAAAAAAAAAAAAAAAAAAAAAAAAAAAAAAAAAAAAAAAAAAAAAAAAAAAAAAAAAAAAAAAAAAAAAAAAAAAAAAAAAAAAAAAAAAAAAAAAAAAAAAAAAAAAAAAAAAAAAAAAAAAAAAAAAAAAAAAAAAAAAAAAAAAAAAAAAAAAAAAAAAAAAAAAAAAAAAAAAAAAAAAAAAAAAAAAAAAAAAAAAAAAAAAAAAAAAAAAAAAAAAAAAAAAAAAAAAAAAAAAAAAAAAAAAAAAAAAAAAAAAAAAAAAAAAAAAAAAAAAAAAAAAAAAAAAAAAAAAAAAAAAAAAAAAAAAAAAAAAAAAAAAAAAAAAAAAAAAAAAAAAAAAAAAAAAAAAAAAAAAAAAAAAAAAAAAAAAAAAAAAAAAAAAAAAAAAAAAAAAAAAAAAAAAAAAAAAAAAAAAAAAAAAAAAAAAAAAAAAAAAAAAAAAAAAAAAAAAAAAAAAAAAAAAAAAAAAAAAAAAAAAAAAAAAAAAAAAAAAAAAAAAAAAAAAAAAAAAAAAAAAAAAAAAAAAAAAAAAAAAAAAAAAAAAAAAAAAAAAAAAAAAAAAAAAAAAAAAAAAAAAAAAAAAAAAAAAAAAAAAAAAAAAAAAAAAAAAAAAAAAAAAAAAAAAAAAAAAAAAAAAAAAAAAAAAAAAAAAAAAAAAAAAAAAAAAAAAAAAAAAAAAAAAAAAAAAAAAAAAAAAAAAAAAAAAAAAAAAAAAAAAAAAAAAAAAAAAAAAAAAAAAAAAAAAAAAAAAAAAAAAAAAAAAAAAAAAAAAAAAAAAAAAAAAAAAAAAAAAAAAAAAAAAAAAAAAAAAAAAAAAAAAAAAAAAAAAAAAAAAAAAAAAAAAAAAAAAAAAAAAAAAAAAAAAAAAAAAAAAAAAAAAAAAAAAAAAAAAAAAAAAAAAAAAAAAAAAAAAAAAAAAAAAAAAAAAAAAAAAAAAAAAAAAAAAAAAAAAAAAAAAAAAAAAAAAAAAAAAAAAAAAAAAAAAAAAAAAAAAAAAAAAAAAAAAAAAAAAAAAAAAAAAAAAAAAAAAAAAAAAAAAAAAAAAAAAAAAAAAAAAAAAAAAAAAAAAAAAAAAAAAAAAAAAAAAAAAAAAAAAAAAAAAAAAAAAAAAAAAAAAAAAAAAAAAAAAAAAAAAAAAAAAAAAAAAAAAAAAAAAAAAAAAAAAAAAAAAAAAAAAAAAAAAAAAAAAAAAAAAAAAAAAAAAAAAAAAAAAAAAAAAAAAAAAAAAAAAAAAAAAAAAAAAAAAAAAAAAAAAAAAAAAAAAAAAAAAAAAAAAAAAAAAAAAAAAAAAAAAAAAAAAAAAAAAAAAAAAAAAAAAAAAAAAAAAAAAAAAAAAAAAAAAAAAAAAAAAAAAAAAAAAAAAAAAAAAAAAAAAAAAAAAAAAAAAAAAAAAAAAAAAAAAAAAAAAAAAAAAAAAAAAAAAAAAAAAAAAAAAAAAAAAAAAAAAAAAAAAAAAAAAAAAAAAAAAAAAAAAAAAAAAAAAAAAAAAAAAAAAAAAAAAAAAAAAAAAAAAAAAAAAAAAAAAAAAAAAAAAAAAAAAAAAAAAAAAAAAAAAAAAAAAAAAAAAAAAAAAAAAAAAAAAAAAAPZYQAlqE27ERHqF/aKyXPxeYT/33EV/taspZr/FTpjXuqMwsGOowxvyv2e2F0YNxjai0Jbn2zDphwjxz8jtOd7HVcU=</c2pa:manifest></metadata><path d="M8.34 62.67L0 62.67L0 53.79L8.34 53.79L8.34 62.67ZM24.78 62.67L16.80 62.67L16.80 20.25L24.78 20.25L24.78 62.67ZM67.32 62.67L61.02 62.67L61.02 55.71L67.32 55.71L67.32 62.67ZM44.82 77.55L44.82 77.55Q42.60 77.55 40.17 77.22Q37.74 76.89 34.98 76.35L34.98 76.35L36.18 69.93Q39.18 70.29 41.28 70.47Q43.38 70.65 44.82 70.65L44.82 70.65Q49.14 70.65 51.06 69.09Q52.98 67.53 52.98 64.41L52.98 64.41L52.98 38.07L54.96 39.51L47.46 39.51Q45 39.51 43.50 40.08Q42 40.65 41.31 42.42Q40.62 44.19 40.62 47.79L40.62 47.79Q40.62 51.21 41.25 52.92Q41.88 54.63 43.38 55.17Q44.88 55.71 47.46 55.71L47.46 55.71L52.98 55.71L52.98 62.67L47.46 62.67Q42.36 62.67 39.06 61.05Q35.76 59.43 34.17 56.13Q32.58 52.83 32.58 47.79L32.58 47.79Q32.58 42.75 34.17 39.36Q35.76 35.97 39.06 34.26Q42.36 32.55 47.46 32.55L47.46 32.55L61.02 32.55L61.02 64.41Q61.02 68.49 59.01 71.46Q57 74.43 53.37 75.99Q49.74 77.55 44.82 77.55ZM67.32 62.67L67.32 62.67L67.32 55.71Q67.68 55.71 67.89 55.95Q68.10 56.19 68.25 56.67Q68.40 57.15 68.46 57.78Q68.52 58.41 68.52 59.19L68.52 59.19Q68.52 59.97 68.46 60.63Q68.40 61.29 68.25 61.74Q68.10 62.19 67.89 62.43Q67.68 62.67 67.32 62.67ZM117.66 62.67L102.60 62.67Q100.14 62.67 97.71 61.74Q95.28 60.81 93.24 58.95L93.24 58.95L98.16 53.85Q99.36 54.81 100.41 55.26Q101.46 55.71 102.60 55.71L102.60 55.71L113.82 55.71L109.68 59.49L109.68 46.17Q109.68 45.21 109.47 43.26Q109.26 41.31 108.87 38.82Q108.48 36.33 107.94 33.75L107.94 33.75L115.86 32.55Q116.28 34.71 116.67 37.38Q117.06 40.05 117.36 42.42Q117.66 44.79 117.66 46.17L117.66 46.17L117.66 62.67ZM82.32 62.67L67.32 62.67L67.32 55.71L76.08 55.71L74.28 57.57L74.28 38.67L82.32 38.67L82.32 62.67ZM87.18 62.67L82.32 62.67L82.32 55.71L87.18 55.71Q89.10 55.71 90.12 55.14Q91.14 54.57 91.53 52.80Q91.92 51.03 91.92 47.49L91.92 47.49L91.92 35.67L99.96 35.67L99.96 47.49Q99.96 52.83 98.61 56.19Q97.26 59.55 94.44 61.11Q91.62 62.67 87.18 62.67L87.18 62.67ZM67.32 55.71L67.32 62.67Q66.96 62.67 66.75 62.43Q66.54 62.19 66.39 61.74Q66.24 61.29 66.18 60.63Q66.12 59.97 66.12 59.19L66.12 59.19Q66.12 58.11 66.24 57.36Q66.36 56.61 66.63 56.16Q66.90 55.71 67.32 55.71L67.32 55.71ZM146.40 62.67L138.06 62.67L138.06 53.79L146.40 53.79L146.40 62.67ZM160.92 62.67L152.58 62.67L152.58 53.79L160.92 53.79L160.92 62.67ZM210.60 62.67L186.12 62.67Q179.70 62.67 175.29 60.99Q170.88 59.31 168.63 56.01Q166.38 52.71 166.38 47.79L166.38 47.79Q166.38 46.35 166.56 44.76Q166.74 43.17 167.01 41.70Q167.28 40.23 167.52 39.09Q167.76 37.95 167.88 37.41L167.88 37.41L175.68 38.91Q175.50 39.87 175.20 41.37Q174.90 42.87 174.66 44.52Q174.42 46.17 174.42 47.67L174.42 47.67Q174.42 50.01 175.17 51.57Q175.92 53.13 177.42 54.06Q178.92 54.99 181.20 55.35Q183.48 55.71 186.54 55.71L186.54 55.71L207.24 55.71L202.56 59.61L202.56 20.25L210.60 20.25L210.60 62.67ZM188.70 37.47L184.86 40.05Q183.72 38.67 183.12 37.41Q182.52 36.15 182.52 34.71L182.52 34.71Q182.52 32.67 183.60 31.02Q184.68 29.37 186.42 28.44Q188.16 27.51 190.26 27.51L190.26 27.51Q191.40 27.51 192.60 27.81Q193.80 28.11 194.64 28.71L194.64 28.71L192.60 32.37Q192.06 32.07 191.55 31.98Q191.04 31.89 190.50 31.89L190.50 31.89Q189.06 31.89 188.28 32.64Q187.50 33.39 187.50 34.65L187.50 34.65Q187.50 35.37 187.80 36.03Q188.10 36.69 188.70 37.47L188.70 37.47ZM195.72 40.53L181.20 40.53L181.20 36.15L195.72 36.15L195.72 40.53ZM217.02 77.55L217.02 77.55Q216.24 77.55 215.34 77.49Q214.44 77.43 213.48 77.31L213.48 77.31L213.78 70.47Q214.74 70.53 215.61 70.59Q216.48 70.65 216.90 70.65L216.90 70.65Q219.24 70.65 220.65 68.79Q222.06 66.93 222.06 63.57L222.06 63.57L222.06 32.55L230.10 32.55L230.10 63.57Q230.10 67.65 228.45 70.83Q226.80 74.01 223.86 75.78Q220.92 77.55 217.02 77.55ZM247.50 62.67L239.52 62.67L239.52 20.25L247.50 20.25L247.50 62.67ZM290.04 62.67L283.74 62.67L283.74 55.71L290.04 55.71L290.04 62.67ZM267.54 77.55L267.54 77.55Q265.32 77.55 262.89 77.22Q260.46 76.89 257.70 76.35L257.70 76.35L258.90 69.93Q261.90 70.29 264 70.47Q266.10 70.65 267.54 70.65L267.54 70.65Q271.86 70.65 273.78 69.09Q275.70 67.53 275.70 64.41L275.70 64.41L275.70 38.07L277.68 39.51L270.18 39.51Q267.72 39.51 266.22 40.08Q264.72 40.65 264.03 42.42Q263.34 44.19 263.34 47.79L263.34 47.79Q263.34 51.21 263.97 52.92Q264.60 54.63 266.10 55.17Q267.60 55.71 270.18 55.71L270.18 55.71L275.70 55.71L275.70 62.67L270.18 62.67Q265.08 62.67 261.78 61.05Q258.48 59.43 256.89 56.13Q255.30 52.83 255.30 47.79L255.30 47.79Q255.30 42.75 256.89 39.36Q258.48 35.97 261.78 34.26Q265.08 32.55 270.18 32.55L270.18 32.55L283.74 32.55L283.74 64.41Q283.74 68.49 281.73 71.46Q279.72 74.43 276.09 75.99Q272.46 77.55 267.54 77.55ZM290.04 62.67L290.04 62.67L290.04 55.71Q290.40 55.71 290.61 55.95Q290.82 56.19 290.97 56.67Q291.12 57.15 291.18 57.78Q291.24 58.41 291.24 59.19L291.24 59.19Q291.24 59.97 291.18 60.63Q291.12 61.29 290.97 61.74Q290.82 62.19 290.61 62.43Q290.40 62.67 290.04 62.67ZM346.74 62.67L340.38 62.67L340.38 55.71L346.74 55.71L346.74 62.67ZM290.04 55.71L290.04 62.67Q289.68 62.67 289.47 62.43Q289.26 62.19 289.11 61.74Q288.96 61.29 288.90 60.63Q288.84 59.97 288.84 59.19L288.84 59.19Q288.84 58.11 288.96 57.36Q289.08 56.61 289.35 56.16Q289.62 55.71 290.04 55.71L290.04 55.71ZM340.38 62.67L325.32 62.67Q322.86 62.67 320.43 61.74Q318.00 60.81 315.96 58.95L315.96 58.95L320.88 53.85Q322.08 54.81 323.13 55.26Q324.18 55.71 325.32 55.71L325.32 55.71L336.54 55.71L332.40 59.49L332.40 46.17Q332.40 45.21 332.19 43.26Q331.98 41.31 331.59 38.82Q331.20 36.33 330.66 33.75L330.66 33.75L338.58 32.55Q339.00 34.71 339.39 37.38Q339.78 40.05 340.08 42.42Q340.38 44.79 340.38 46.17L340.38 46.17L340.38 62.67ZM305.04 62.67L290.04 62.67L290.04 55.71L298.80 55.71L297.00 57.57L297.00 38.67L305.04 38.67L305.04 62.67ZM309.90 62.67L305.04 62.67L305.04 55.71L309.90 55.71Q311.82 55.71 312.84 55.14Q313.86 54.57 314.25 52.80Q314.64 51.03 314.64 47.49L314.64 47.49L314.64 35.67L322.68 35.67L322.68 47.49Q322.68 52.83 321.33 56.19Q319.98 59.55 317.16 61.11Q314.34 62.67 309.90 62.67L309.90 62.67ZM346.74 62.67L346.74 62.67L346.74 55.71Q347.04 55.71 347.28 55.95Q347.52 56.19 347.64 56.67Q347.76 57.15 347.85 57.78Q347.94 58.41 347.94 59.19L347.94 59.19Q347.94 59.97 347.85 60.63Q347.76 61.29 347.64 61.74Q347.52 62.19 347.28 62.43Q347.04 62.67 346.74 62.67ZM322.20 17.85L315.24 17.85L315.24 11.85L322.20 11.85L322.20 17.85ZM317.16 27.03L309.42 27.03L309.42 20.19L317.16 20.19L317.16 27.03ZM328.08 27.03L320.34 27.03L320.34 20.19L328.08 20.19L328.08 27.03ZM382.20 62.67L346.74 62.67L346.74 55.71L377.88 55.71L374.22 58.83L374.22 47.79Q374.22 44.55 373.50 42.72Q372.78 40.89 371.01 40.14Q369.24 39.39 366.12 39.39L366.12 39.39Q363.66 39.39 361.29 39.72Q358.92 40.05 357.60 40.59L357.60 40.59L362.58 35.91Q362.22 37.29 361.89 39.39Q361.56 41.49 361.32 43.86Q361.08 46.23 361.08 48.51L361.08 48.51Q361.08 50.61 361.29 52.89Q361.50 55.17 361.77 56.91Q362.04 58.65 362.22 59.31L362.22 59.31L354.60 61.41Q354.36 60.57 354.00 58.65Q353.64 56.73 353.37 54.09Q353.10 51.45 353.10 48.51L353.10 48.51Q353.10 45.51 353.40 42.72Q353.70 39.93 354.09 37.68Q354.48 35.43 354.84 34.05L354.84 34.05Q356.28 33.51 359.34 32.97Q362.40 32.43 366.12 32.43L366.12 32.43Q371.52 32.43 375.09 33.93Q378.66 35.43 380.43 38.79Q382.20 42.15 382.20 47.85L382.20 47.85L382.20 62.67ZM346.74 55.71L346.74 62.67Q346.38 62.67 346.17 62.43Q345.96 62.19 345.81 61.74Q345.66 61.29 345.60 60.63Q345.54 59.97 345.54 59.19L345.54 59.19Q345.54 58.11 345.66 57.36Q345.78 56.61 346.05 56.16Q346.32 55.71 346.74 55.71L346.74 55.71Z" fill="#F5F4EF"></path><g transform="translate(401.87 -12.52) scale(1.19200)"><path d="M78 48A30 30 0 1 1 48 18" fill="none" stroke="#F5F4EF" stroke-width="15" stroke-linecap="round"></path><circle cx="69.213" cy="26.787" r="8" fill="#F5F4EF"></circle></g></svg>